<?xml version="1.0" encoding="utf-8"?>
<!-- Generator: Adobe Illustrator 15.0.0, SVG Export Plug-In . SVG Version: 6.00 Build 0)  -->
<!DOCTYPE svg PUBLIC "-//W3C//DTD SVG 1.1//EN" "http://www.w3.org/Graphics/SVG/1.1/DTD/svg11.dtd">
<svg version="1.1" id="Layer_1" xmlns="http://www.w3.org/2000/svg" xmlns:xlink="http://www.w3.org/1999/xlink" x="0px" y="0px"
	 width="154px" height="37px" viewBox="0 0 154 37" enable-background="new 0 0 154 37" xml:space="preserve">
<g>
	<g>
		<path fill="#005BAA" d="M20.69,27.495c0,0.316-0.168,0.475-0.502,0.475h-1.635c-0.316,0-0.475-0.158-0.475-0.475v-7.518
			c0-0.211-0.08-0.316-0.238-0.316H9.954c-0.158,0-0.236,0.105-0.236,0.316v7.518c0,0.316-0.168,0.475-0.502,0.475H7.581
			c-0.316,0-0.475-0.158-0.475-0.475V10.507c0-0.316,0.158-0.475,0.475-0.475h1.635c0.334,0,0.502,0.158,0.502,0.475v6.832
			c0,0.211,0.078,0.316,0.236,0.316h7.887c0.158,0,0.238-0.105,0.238-0.316v-6.832c0-0.316,0.158-0.475,0.475-0.475h1.635
			c0.334,0,0.502,0.158,0.502,0.475V27.495z"/>
		<path fill="#005BAA" d="M35.724,21.19c0,1.002-0.133,1.934-0.396,2.797c-0.264,0.861-0.664,1.6-1.199,2.215
			c-0.537,0.615-1.215,1.1-2.031,1.451c-0.818,0.352-1.773,0.527-2.863,0.527c-1.055,0-1.986-0.162-2.795-0.488
			c-0.811-0.324-1.482-0.791-2.02-1.398c-0.535-0.605-0.945-1.336-1.227-2.189c-0.281-0.852-0.422-1.797-0.422-2.836
			c0-1.002,0.133-1.934,0.396-2.795s0.664-1.6,1.199-2.217c0.537-0.615,1.209-1.098,2.02-1.449c0.809-0.352,1.768-0.529,2.875-0.529
			c1.055,0,1.986,0.164,2.795,0.488c0.809,0.326,1.482,0.791,2.02,1.398c0.535,0.607,0.943,1.336,1.227,2.189
			C35.583,19.208,35.724,20.153,35.724,21.19z M33.112,21.138c0-1.775-0.328-3.055-0.984-3.838
			c-0.654-0.783-1.619-1.174-2.895-1.174s-2.234,0.4-2.881,1.199c-0.646,0.801-0.971,2.133-0.971,3.996
			c0,1.777,0.328,3.057,0.984,3.84c0.654,0.781,1.619,1.174,2.895,1.174c1.256,0,2.213-0.4,2.867-1.201
			C32.784,24.333,33.112,23.001,33.112,21.138z"/>
		<path fill="#005BAA" d="M44.897,27.19c0,0.197-0.102,0.357-0.303,0.482c-0.203,0.125-0.449,0.223-0.738,0.293
			c-0.291,0.072-0.598,0.125-0.924,0.16c-0.326,0.037-0.602,0.055-0.83,0.055c-0.758,0-1.391-0.088-1.9-0.264
			s-0.918-0.436-1.227-0.779c-0.307-0.342-0.527-0.773-0.658-1.291c-0.133-0.52-0.199-1.121-0.199-1.807v-7.361
			c0-0.227-0.088-0.342-0.264-0.342h-1.396c-0.336,0-0.502-0.158-0.502-0.475v-0.898c0-0.314,0.166-0.475,0.502-0.475h1.396
			c0.176,0,0.264-0.105,0.264-0.316v-2.77c0-0.334,0.158-0.5,0.475-0.5h1.531c0.334,0,0.5,0.166,0.5,0.5v2.77
			c0,0.211,0.088,0.316,0.264,0.316h3.563c0.299,0,0.447,0.16,0.447,0.475v0.898c0,0.316-0.148,0.475-0.447,0.475h-3.563
			c-0.176,0-0.264,0.113-0.264,0.342v7.445c0,0.701,0.141,1.232,0.424,1.592c0.279,0.359,0.756,0.539,1.424,0.539
			c0.334,0,0.611-0.025,0.83-0.08c0.221-0.053,0.404-0.113,0.555-0.184c0.148-0.07,0.277-0.133,0.383-0.186s0.201-0.078,0.289-0.078
			c0.246,0,0.369,0.148,0.369,0.447V27.19z"/>
		<path fill="#005BAA" d="M57.769,21.032c0,0.316-0.16,0.475-0.477,0.475h-8.518c-0.266,0-0.396,0.123-0.396,0.369
			c0,1.354,0.377,2.432,1.133,3.232c0.756,0.799,1.855,1.199,3.299,1.199c0.563,0,1.063-0.053,1.502-0.158s0.818-0.215,1.135-0.33
			c0.316-0.113,0.576-0.225,0.779-0.33c0.201-0.105,0.355-0.158,0.461-0.158c0.246,0,0.369,0.141,0.369,0.422v0.924
			c0,0.176-0.014,0.313-0.039,0.408c-0.027,0.098-0.111,0.199-0.25,0.305c-0.16,0.123-0.393,0.232-0.699,0.33
			c-0.309,0.096-0.656,0.18-1.043,0.25s-0.795,0.123-1.227,0.158s-0.848,0.053-1.252,0.053c-2.287,0-3.988-0.598-5.105-1.793
			c-1.117-1.197-1.674-2.867-1.674-5.014c0-1.107,0.148-2.096,0.447-2.967s0.721-1.613,1.268-2.229
			c0.543-0.615,1.199-1.086,1.965-1.412c0.764-0.324,1.621-0.488,2.57-0.488c1.813,0,3.223,0.533,4.234,1.598
			c1.012,1.063,1.518,2.58,1.518,4.549V21.032z M55.157,19.37c0-1.037-0.301-1.842-0.9-2.414c-0.602-0.57-1.404-0.857-2.41-0.857
			c-0.564,0-1.064,0.094-1.496,0.277c-0.434,0.186-0.795,0.436-1.086,0.752s-0.512,0.678-0.662,1.082s-0.225,0.816-0.225,1.24
			c0,0.088,0.018,0.152,0.053,0.197c0.035,0.043,0.123,0.066,0.264,0.066h6.145c0.123,0,0.207-0.023,0.252-0.066
			C55.134,19.603,55.157,19.511,55.157,19.37z"/>
		<path fill="#005BAA" d="M62.298,27.495c0,0.316-0.15,0.475-0.449,0.475h-1.582c-0.299,0-0.449-0.158-0.449-0.475V9.452
			c0-0.316,0.15-0.475,0.449-0.475h1.582c0.299,0,0.449,0.158,0.449,0.475V27.495z"/>
	</g>
	<g>
		<path fill="#00B9F2" d="M109.989,9.021c-0.316-0.135-0.834-0.201-1.555-0.201c-1.232,0-2.146,0.336-2.744,1.006
			c-0.598,0.672-0.896,1.564-0.896,2.678v1.67v2.506v7.84v2.977c0,0.316,0.141,0.475,0.422,0.475h1.635
			c0.299,0,0.449-0.158,0.449-0.475V16.679c0-0.227,0.096-0.342,0.289-0.342h2.242c0.318,0,0.477-0.158,0.477-0.475v-0.896
			c0-0.316-0.158-0.477-0.477-0.477h-2.242c-0.193,0-0.289-0.105-0.289-0.316v-1.688c0-0.615,0.127-1.059,0.383-1.332
			c0.254-0.271,0.637-0.408,1.146-0.408c0.387,0,0.66,0.053,0.818,0.158s0.316,0.158,0.475,0.158c0.229,0,0.344-0.141,0.344-0.424
			V9.595C110.466,9.345,110.308,9.153,109.989,9.021z"/>
		<path fill="#00B9F2" d="M122.911,21.032c0,0.316-0.16,0.475-0.477,0.475h-8.518c-0.266,0-0.396,0.123-0.396,0.369
			c0,1.354,0.377,2.432,1.133,3.232c0.756,0.799,1.855,1.199,3.299,1.199c0.563,0,1.063-0.053,1.502-0.158s0.818-0.215,1.135-0.33
			c0.316-0.113,0.576-0.225,0.779-0.33c0.201-0.105,0.355-0.158,0.461-0.158c0.246,0,0.369,0.141,0.369,0.422v0.924
			c0,0.176-0.014,0.313-0.039,0.408c-0.027,0.098-0.111,0.199-0.25,0.305c-0.16,0.123-0.393,0.232-0.699,0.328
			c-0.309,0.098-0.656,0.182-1.043,0.252s-0.795,0.123-1.227,0.158s-0.848,0.053-1.252,0.053c-2.287,0-3.988-0.598-5.105-1.795
			c-1.117-1.195-1.674-2.865-1.674-5.012c0-1.107,0.148-2.096,0.447-2.967s0.721-1.613,1.268-2.229
			c0.543-0.615,1.199-1.086,1.965-1.412c0.764-0.324,1.621-0.488,2.57-0.488c1.813,0,3.223,0.533,4.234,1.598
			c1.012,1.063,1.518,2.58,1.518,4.549V21.032z M120.3,19.37c0-1.037-0.301-1.842-0.9-2.414c-0.602-0.57-1.404-0.857-2.41-0.857
			c-0.564,0-1.064,0.094-1.496,0.277c-0.434,0.186-0.795,0.436-1.086,0.752s-0.512,0.678-0.662,1.082s-0.225,0.816-0.225,1.24
			c0,0.088,0.018,0.152,0.053,0.197c0.035,0.043,0.123,0.066,0.264,0.066h6.145c0.123,0,0.207-0.023,0.252-0.066
			C120.276,19.603,120.3,19.511,120.3,19.37z"/>
		<path fill="#00B9F2" d="M135.94,26.763c0,0.197-0.035,0.344-0.105,0.441s-0.166,0.182-0.289,0.254
			c-0.369,0.215-0.896,0.389-1.582,0.521c-0.688,0.135-1.434,0.201-2.242,0.201c-1.145,0-2.137-0.162-2.98-0.488
			c-0.844-0.324-1.541-0.787-2.088-1.385c-0.549-0.598-0.959-1.314-1.229-2.15c-0.27-0.834-0.404-1.762-0.404-2.783
			c0-1.037,0.135-1.99,0.404-2.861s0.693-1.617,1.268-2.242c0.574-0.623,1.305-1.111,2.193-1.463
			c0.887-0.352,1.947-0.529,3.178-0.529c0.352,0,0.707,0.023,1.068,0.068c0.361,0.043,0.699,0.098,1.016,0.16
			s0.594,0.139,0.832,0.227c0.236,0.09,0.426,0.17,0.566,0.24c0.176,0.107,0.285,0.211,0.33,0.309
			c0.043,0.098,0.064,0.227,0.064,0.387v1.09c0,0.281-0.123,0.422-0.369,0.422c-0.158,0-0.32-0.053-0.486-0.158
			c-0.168-0.105-0.383-0.215-0.646-0.33c-0.264-0.113-0.586-0.225-0.963-0.33c-0.379-0.105-0.84-0.158-1.385-0.158
			c-0.793,0-1.469,0.137-2.031,0.408c-0.564,0.27-1.025,0.633-1.385,1.088c-0.361,0.455-0.625,0.994-0.791,1.615
			c-0.168,0.621-0.252,1.281-0.252,1.98c0,1.609,0.369,2.838,1.107,3.686c0.74,0.85,1.795,1.273,3.166,1.273
			c0.545,0,1.02-0.053,1.424-0.158s0.752-0.215,1.043-0.33c0.289-0.113,0.531-0.225,0.725-0.33s0.352-0.158,0.475-0.158
			c0.246,0,0.369,0.141,0.369,0.422V26.763z"/>
		<path fill="#00B9F2" d="M146.894,27.19c0,0.195-0.102,0.357-0.303,0.482c-0.203,0.125-0.449,0.223-0.738,0.293
			c-0.291,0.072-0.598,0.125-0.924,0.16c-0.326,0.037-0.602,0.055-0.83,0.055c-0.758,0-1.391-0.088-1.9-0.264
			s-0.918-0.436-1.227-0.779c-0.307-0.342-0.527-0.773-0.658-1.291c-0.133-0.52-0.199-1.121-0.199-1.807v-7.361
			c0-0.227-0.088-0.342-0.264-0.342h-1.396c-0.336,0-0.502-0.158-0.502-0.475v-0.896c0-0.316,0.166-0.477,0.502-0.477h1.396
			c0.176,0,0.264-0.105,0.264-0.316v-2.77c0-0.334,0.158-0.5,0.475-0.5h1.531c0.334,0,0.5,0.166,0.5,0.5v2.77
			c0,0.211,0.088,0.316,0.264,0.316h3.563c0.299,0,0.447,0.16,0.447,0.477v0.896c0,0.316-0.148,0.475-0.447,0.475h-3.563
			c-0.176,0-0.264,0.113-0.264,0.342v7.445c0,0.701,0.141,1.232,0.424,1.592c0.279,0.359,0.756,0.539,1.424,0.539
			c0.334,0,0.611-0.025,0.83-0.08c0.221-0.053,0.404-0.113,0.555-0.184c0.148-0.07,0.277-0.133,0.383-0.186s0.201-0.078,0.289-0.078
			c0.246,0,0.369,0.148,0.369,0.447V27.19z"/>
		<path fill="#00B9F2" d="M80.843,15.124c0,1.055-0.215,1.996-0.645,2.822c-0.432,0.826-1.061,1.469-1.887,1.926
			c-0.527,0.299-1.131,0.514-1.807,0.646c-0.678,0.131-1.535,0.197-2.572,0.197h-1.346c-0.176,0-0.264,0.105-0.264,0.316v6.463
			c0,0.316-0.168,0.475-0.5,0.475h-1.637c-0.316,0-0.475-0.158-0.475-0.475V10.507c0-0.316,0.148-0.475,0.449-0.475h4.035
			c0.633,0,1.188,0.018,1.662,0.053s0.893,0.088,1.252,0.158c0.361,0.07,0.678,0.162,0.951,0.277
			c0.271,0.113,0.531,0.25,0.777,0.408c0.65,0.457,1.148,1.047,1.49,1.768C80.673,13.417,80.843,14.226,80.843,15.124z
			 M78.101,15.308c0-1.178-0.309-2.053-0.924-2.625c-0.615-0.57-1.609-0.857-2.98-0.857h-1.609c-0.176,0-0.264,0.105-0.264,0.316
			v6.463c0,0.195,0.088,0.291,0.264,0.291h1.557c1.371,0,2.375-0.295,3.008-0.885C77.784,17.423,78.101,16.521,78.101,15.308z"/>
		<path fill="#00B9F2" d="M93.55,21.032c0,0.316-0.158,0.475-0.477,0.475h-8.518c-0.264,0-0.396,0.123-0.396,0.369
			c0,1.354,0.377,2.432,1.135,3.232c0.756,0.799,1.855,1.199,3.297,1.199c0.563,0,1.064-0.053,1.504-0.158s0.816-0.215,1.133-0.33
			c0.318-0.113,0.576-0.225,0.779-0.33c0.201-0.105,0.355-0.158,0.461-0.158c0.246,0,0.369,0.141,0.369,0.422v0.924
			c0,0.176-0.012,0.313-0.039,0.408c-0.025,0.098-0.109,0.199-0.25,0.305c-0.158,0.123-0.393,0.232-0.699,0.328
			c-0.309,0.098-0.656,0.182-1.043,0.252s-0.795,0.123-1.227,0.158c-0.43,0.035-0.848,0.053-1.252,0.053
			c-2.287,0-3.988-0.598-5.105-1.795c-1.115-1.195-1.674-2.865-1.674-5.012c0-1.107,0.148-2.096,0.447-2.967
			s0.723-1.613,1.268-2.229s1.199-1.086,1.965-1.412c0.766-0.324,1.623-0.488,2.572-0.488c1.811,0,3.223,0.533,4.232,1.598
			c1.012,1.063,1.518,2.58,1.518,4.549V21.032z M90.938,19.37c0-1.037-0.301-1.842-0.9-2.414c-0.6-0.57-1.404-0.857-2.41-0.857
			c-0.564,0-1.064,0.094-1.496,0.277c-0.432,0.186-0.795,0.436-1.086,0.752s-0.512,0.678-0.662,1.082s-0.225,0.816-0.225,1.24
			c0,0.088,0.018,0.152,0.053,0.197c0.035,0.043,0.123,0.066,0.266,0.066h6.143c0.125,0,0.207-0.023,0.252-0.066
			C90.917,19.603,90.938,19.511,90.938,19.37z"/>
		<path fill="#00B9F2" d="M102.729,16.231c0,0.281-0.123,0.422-0.369,0.422c-0.105,0-0.201-0.014-0.289-0.039
			c-0.088-0.027-0.199-0.053-0.33-0.08c-0.133-0.025-0.303-0.053-0.514-0.078c-0.213-0.027-0.494-0.041-0.846-0.041
			c-0.686,0-1.248,0.15-1.688,0.449s-0.66,0.826-0.66,1.582v9.049c0,0.316-0.148,0.475-0.447,0.475h-1.584
			c-0.299,0-0.447-0.158-0.447-0.475V14.966c0-0.316,0.148-0.477,0.447-0.477h1.504c0.229,0,0.344,0.115,0.344,0.344v0.211
			c0,0.176,0.096,0.264,0.289,0.264s0.4-0.053,0.621-0.158c0.219-0.105,0.465-0.225,0.738-0.355c0.271-0.133,0.576-0.252,0.91-0.357
			s0.713-0.158,1.135-0.158c0.475,0,0.791,0.059,0.949,0.172c0.158,0.115,0.236,0.295,0.236,0.541V16.231z"/>
	</g>
</g>
</svg>
